<svg xmlns="http://www.w3.org/2000/svg" version="1.1" x="0px" y="0px" width="256px" height="128px" viewBox="0 0 256 128">
	<path fill="#6E6E6E" d="M33.474 82.171l-5.291 24.843c-0.138 0.598-0.184 1.059-0.184 1.473c0 1.3 0.6 1.7 1.9 1.7 c1.794 0 3.45-1.748 4.14-4.048h1.933c-2.623 7.499-7.177 8.511-9.661 8.511c-2.76 0-4.923-1.656-4.923-5.521 c0-0.874 0.138-1.886 0.368-2.99l4.922-23.049L33.474 82.171z"/>
	<path fill="#6E6E6E" d="M43.777 91.372l-3.312 15.642c-0.138 0.598-0.184 1.059-0.184 1.473c0 1.3 0.6 1.7 1.9 1.7 c1.794 0 3.45-1.748 4.14-4.048h1.933c-2.623 7.499-7.177 8.511-9.661 8.511c-2.76 0-4.923-1.656-4.923-5.521 c0-0.874 0.138-1.886 0.368-2.99l3.128-14.768H43.777z M41.707 81.572c2.024 0 3.7 1.7 3.7 3.7 c0 2.023-1.656 3.634-3.68 3.634c-2.024 0-3.635-1.61-3.635-3.634C38.072 83.2 39.7 81.6 41.7 81.572z"/>
	<path fill="#6E6E6E" d="M68.389 91.372l-3.313 15.642c-0.138 0.598-0.184 1.059-0.184 1.473c0 1.3 0.6 2 1.9 2 c1.794 0 3.037-2.024 3.727-4.324h1.932c-2.622 7.499-6.763 8.511-9.247 8.511c-2.576 0-4.232-1.473-4.508-4.232 c-1.426 2.116-3.588 4.232-6.855 4.232c-3.128 0-6.119-1.932-6.119-7.406c0-6.211 3.818-16.102 11.823-16.102 c2.623 0 3.7 1 3.7 2.346v0.322l0.506-2.438H68.389z M52.517 106.6c0 3.5 1.5 3.6 2.3 3.6 c1.334 0 3.267-1.379 3.819-4.048l2.208-10.397c0-0.552-0.414-1.748-1.886-1.748C55.047 94 52.5 102.3 52.5 106.6z"/>
	<path fill="#6E6E6E" d="M82.095 95.375c-1.656 0-2.898 1.932-3.588 4.232l-3.128 14.768h-6.625l4.876-23.003h6.625l-0.506 2.4 c1.932-2.207 3.957-2.576 5.383-2.576c2.944 0 5.1 1.5 5.1 5.199c0 3.727-2.208 9.293-2.208 11.9 c0 1.1 0.5 1.9 1.8 1.932c2.024 0 2.853-1.656 3.864-4.048h1.933c-2.577 7.545-6.119 8.511-8.557 8.5 c-4.002 0-5.429-2.576-5.429-5.198c0-3.128 2.07-8.787 2.07-11.731C83.751 96.2 83.2 95.4 82.1 95.375z"/>
	<path fill="#6E6E6E" d="M105.462 82.171l-5.291 24.843c-0.138 0.598-0.184 1.059-0.184 1.473c0 1.3 0.6 1.7 1.9 1.7 c1.794 0 3.45-1.748 4.14-4.048h1.933c-2.623 7.499-7.177 8.511-9.661 8.511c-2.76 0-4.923-1.656-4.923-5.521 c0-0.874 0.138-1.886 0.368-2.99l4.922-23.049L105.462 82.171z"/>
	<path fill="#6E6E6E" d="M115.766 91.372l-3.312 15.642c-0.138 0.598-0.184 1.059-0.184 1.473c0 1.3 0.6 1.7 1.9 1.7 c1.794 0 3.45-1.748 4.14-4.048h1.933c-2.623 7.499-7.177 8.511-9.661 8.511c-2.76 0-4.923-1.656-4.923-5.521 c0-0.874 0.138-1.886 0.368-2.99l3.128-14.768H115.766z M113.696 81.572c2.024 0 3.7 1.7 3.7 3.7 c0 2.023-1.656 3.634-3.68 3.634c-2.024 0-3.635-1.61-3.635-3.634C110.061 83.2 111.7 81.6 113.7 81.572z"/>
	<path fill="#6E6E6E" d="M140.378 91.372l-3.313 15.642c-0.137 0.598-0.184 1.059-0.184 1.473c0 1.3 0.6 2 1.9 2 c1.794 0 3.036-2.024 3.727-4.324h1.932c-2.622 7.499-6.763 8.511-9.247 8.511c-2.576 0-4.232-1.473-4.509-4.232 c-1.426 2.116-3.588 4.232-6.854 4.232c-3.128 0-6.119-1.932-6.119-7.406c0-6.211 3.818-16.102 11.823-16.102 c2.623 0 3.7 1 3.7 2.346v0.322l0.507-2.438H140.378z M124.506 106.6c0 3.5 1.5 3.6 2.3 3.6 c1.334 0 3.267-1.379 3.819-4.048l2.207-10.397c0-0.552-0.414-1.748-1.886-1.748C127.036 94 124.5 102.3 124.5 106.6z"/>
	<path fill="#6E6E6E" d="M154.084 95.375c-1.656 0-2.898 1.932-3.589 4.232l-3.128 14.768h-6.625l4.876-23.003h6.625l-0.506 2.4 c1.933-2.207 3.956-2.576 5.383-2.576c2.944 0 5.1 1.5 5.1 5.199c0 3.727-2.208 9.293-2.208 11.9 c0 1.1 0.5 1.9 1.8 1.932c2.024 0 2.853-1.656 3.864-4.048h1.933c-2.576 7.545-6.119 8.511-8.558 8.5 c-4.002 0-5.428-2.576-5.428-5.198c0-3.128 2.069-8.787 2.069-11.731C155.739 96.2 155.2 95.4 154.1 95.375z"/>
	<path fill="#6E6E6E" d="M187.435 91.372l-9.201 6.395c0.506-0.092 1.012-0.185 1.518-0.185c3.404 0 5.1 2.4 5.1 5.4 c0 0.553-0.046 1.15-0.184 1.748l-0.506 2.301c-0.092 0.46-0.23 0.967-0.23 1.473c0 0.9 0.4 1.7 1.8 1.7 c2.024 0 2.853-1.656 3.865-4.048h1.932c-2.622 7.729-6.349 8.511-8.465 8.511c-3.772 0-5.797-1.887-5.797-5.244 c0-0.736 0.093-1.519 0.276-2.393l0.368-1.795c0.138-0.598 0.184-1.195 0.184-1.701c0-1.334-0.46-2.209-1.656-2.209 c-1.058 0-2.116 0.645-3.404 1.703l-2.392 11.363h-6.625l6.671-31.284l6.809-0.92l-3.45 16.194l8.879-6.993H187.435z"/>
	<path fill="#6E6E6E" d="M211.63 91.372l-3.313 15.642c-0.139 0.598-0.185 1.059-0.185 1.473c0 1.3 0.6 2 1.9 2 c1.794 0 3.036-2.024 3.727-4.324h1.932c-2.622 7.499-6.763 8.511-9.247 8.511c-2.576 0-4.232-1.473-4.509-4.232 c-1.426 2.116-3.588 4.232-6.854 4.232c-3.128 0-6.118-1.932-6.118-7.406c0-6.211 3.818-16.102 11.823-16.102 c2.622 0 3.7 1 3.7 2.346v0.322l0.506-2.438H211.63z M195.758 106.6c0 3.5 1.5 3.6 2.3 3.6 c1.334 0 3.267-1.379 3.818-4.048l2.209-10.397c0-0.552-0.414-1.748-1.887-1.748C198.288 94 195.8 102.3 195.8 106.6z"/>
	<path fill="#6E6E6E" d="M225.336 95.375c-1.656 0-2.898 1.932-3.589 4.232l-3.128 14.768h-6.625l4.876-23.003h6.625l-0.506 2.4 c1.933-2.207 3.956-2.576 5.383-2.576c2.944 0 5.1 1.5 5.1 5.199c0 3.727-2.208 9.293-2.208 11.9 c0 1.1 0.5 1.9 1.8 1.932c0.782 0 1.242-0.092 1.519-0.275c-0.414 3.313-2.623 4.738-5.061 4.7 c-3.543 0-4.646-2.576-4.646-5.198c0-3.128 2.069-8.787 2.069-11.731C226.991 96.2 226.4 95.4 225.3 95.375z"/>
	<path fill="#6E6E6E" d="M80.207 64.634l-2.578 7.793c-5.098 0.077-10.03 0.117-14.795 0.117c-10.742 0-17.036-0.151-18.882-0.454 s-3.711-0.806-5.596-1.509c-1.885-0.703-3.775-1.924-5.669-3.662l-6.797 6.914l-3.34-8.906l5.859-4.98V45.122h-5.449v-7.441h13.125 v22.383c3.047 3.4 7.9 5 14.6 5.039C64.602 65.1 74.4 64.9 80.2 64.634z M30.695 16.9 c2.969 3.8 5.6 7.4 7.9 10.781l-6.855 4.629c-2.344-4.062-4.786-7.91-7.324-11.543L30.695 16.938z M38.664 50.923h18.281 v-5.566H40.246v-6.27c1.835-3.086 3.584-6.484 5.244-10.195h-5.654v-6.914h8.525c0.781-1.992 1.533-4.062 2.256-6.211l8.496 1.3 c-0.625 1.582-1.299 3.223-2.021 4.922h20.713v6.914H53.957c-1.426 3.028-3.008 6.211-4.746 9.551h7.734v-7.441h7.852v7.441h12.539 v6.914H64.797v5.566h14.414v6.914H64.797v6.563h-7.852v-6.563H38.664V50.923z"/>
	<path fill="#6E6E6E" d="M161.975 64.414l-3.008 9.092c-5.947 0.091-11.701 0.137-17.261 0.137c-12.532 0-19.875-0.177-22.029-0.529 c-2.153-0.354-4.33-0.94-6.528-1.761c-2.199-0.82-4.404-2.245-6.614-4.272l-7.93 8.066l-3.896-10.391l6.836-5.811V41.65h-6.357 v-8.682H110.5v26.113c3.555 3.9 9.2 5.9 17 5.879C143.768 65 155.3 64.8 162 64.414z M104.211 8.8 c3.463 4.5 6.5 8.7 9.2 12.578l-7.998 5.4c-2.734-4.739-5.583-9.229-8.545-13.467L104.211 8.77z M113.508 48.418h21.328 v-6.494h-19.482v-7.314c2.142-3.6 4.181-7.565 6.118-11.895h-6.597v-8.066h9.946c0.911-2.324 1.789-4.739 2.632-7.246l9.912 1.5 c-0.729 1.846-1.516 3.76-2.358 5.742h24.165v8.066H131.35c-1.664 3.532-3.509 7.246-5.537 11.143h9.023v-8.682h9.16v8.682h14.629 v8.066h-14.629v6.494h16.816v8.066h-16.816v7.656h-9.16v-7.656h-21.328V48.418z"/>
	<path fill="#6E6E6E" d="M186.281 73.892V55.376c-2.227 2.032-4.609 4.004-7.148 5.918c-0.938-3.007-2.012-5.859-3.223-8.555 c5.742-3.516 10.479-7.519 14.209-12.012h-14.033v-5.332h17.871c0.586-0.977 1.143-1.973 1.67-2.988h-15.088v-5.039h17.256 c0.332-0.898 0.625-1.806 0.879-2.725l-18.662 0.439c-0.234-2.227-0.547-4.316-0.938-6.27c19.531-0.117 36.426-0.586 50.684-1.406 l1.23 6.211l-23.789 0.791c-0.332 0.996-0.684 1.982-1.055 2.959h23.379v5.039h-25.576c-0.488 1.016-1.006 2.012-1.553 3 h31.582v5.332h-34.834c-0.625 0.918-1.27 1.816-1.934 2.695h30.967v30.469h-8.027v-2.227h-25.84v2.227H186.281z M220.148 48.9 h-25.84v2.988h25.84V48.931z M194.309 59.009h25.84v-2.988h-25.84V59.009z M194.309 66.157h25.84V63.11h-25.84V66.157z"/>
</svg>
