<svg xmlns="http://www.w3.org/2000/svg" version="1.1" x="0px" y="0px" width="256px" height="128px" viewBox="0 0 256 128"><path fill="#6E6E6E" d="M38.072 85.254c0 2 1.6 3.6 3.6 3.634c2.024 0 3.68-1.61 3.68-3.634 c0-2.025-1.656-3.682-3.68-3.682C39.683 81.6 38.1 83.2 38.1 85.254z"/><path fill="#6E6E6E" d="M110.061 85.254c0 2 1.6 3.6 3.6 3.634c2.024 0 3.68-1.61 3.68-3.634 c0-2.025-1.656-3.682-3.68-3.682C111.671 81.6 110.1 83.2 110.1 85.254z"/><path fill="#6E6E6E" d="M233.11 110.188c-1.38 0-1.84-0.781-1.84-1.932c0-2.576 2.208-8.143 2.208-11.869 c0-3.681-2.162-5.199-5.106-5.199c-1.427 0-3.45 0.184-5.383 2.391L223.495 91h-6.625l-3.141 15 c-0.694 2.279-1.93 4.367-3.71 4.367c-1.288 0-1.887-0.645-1.887-1.932c0-0.414 0.046-1.037 0.185-1.635L211.63 91h-6.625 L204 93.811v-0.322c0-1.334-0.855-2.346-3.477-2.346c-8.006 0-11.699 9.891-11.699 16.102c0 0.1 0.1 0.1 0.1 0.2 c-0.797 1.652-1.618 2.726-3.24 2.726c-1.426 0-1.778-0.781-1.778-1.701c0-0.506 0.146-1.013 0.238-1.473l0.51-2.301 c0.138-0.598 0.186-1.195 0.186-1.748c0-2.943-1.655-5.383-5.06-5.383c-0.506 0-1.012-0.094-1.518-0.002l9.202-6.58h-4.555 l-8.879 7.18l3.45-16.102l-6.809 0.896L165.728 106h-0.005c-1.012 3-1.84 4.117-3.864 4.117c-1.38 0-1.84-0.746-1.84-1.896 c0-2.576 2.208-8.125 2.208-11.852c0-3.681-2.162-5.19-5.106-5.19c-1.427 0-3.45 0.188-5.383 2.395L152.243 91h-6.625 l-3.141 15.004c-0.694 2.279-1.93 4.367-3.71 4.367c-1.288 0-1.887-0.645-1.887-1.932c0-0.414 0.047-1.037 0.184-1.635L140.378 91 h-6.625L133 93.811v-0.322c0-1.334-0.98-2.346-3.604-2.346c-8.004 0-11.761 9.891-11.761 16.102c0 0.1 0 0.2 0 0.3 c-0.838 1.564-2.134 2.64-3.536 2.64c-1.288 0-1.879-0.414-1.879-1.701c0-0.414 0.05-1.061 0.188-1.658L115.766 91h-6.625 l-3.128 14.953c0 0.004-0.001 0.099-0.001 0.102c-0.691 2.296-2.345 4.086-4.137 4.086c-1.288 0-1.886-0.391-1.886-1.678 c0-0.414 0.046-0.863 0.184-1.461l5.291-24.837l-6.809 0.923l-4.922 23.051c-0.001 0.004-0.001 0.007-0.002 0 c-1.009 2.386-1.838 4.038-3.859 4.038c-1.38 0-1.84-0.781-1.84-1.932c0-2.576 2.208-8.143 2.208-11.869 c0-3.681-2.162-5.199-5.106-5.199c-1.426 0-3.451 0.183-5.383 2.39L80.254 91H73.63l-3.14 15 c-0.693 2.281-1.929 4.373-3.711 4.373c-1.288 0-1.886-0.645-1.886-1.932c0-0.414 0.046-1.037 0.184-1.635L68.389 91h-6.625 L61 93.811v-0.322c0-1.334-0.975-2.346-3.598-2.346c-8.005 0-11.759 9.891-11.759 16.102c0 0.1 0 0.2 0 0.3 c-0.838 1.564-2.133 2.64-3.536 2.64c-1.288 0-1.878-0.414-1.878-1.701c0-0.414 0.05-1.061 0.188-1.658L43.777 91h-6.625 l-3.128 14.953c0 0 0 0.099-0.001 0.102c-0.691 2.296-2.345 4.086-4.137 4.086c-1.288 0-1.886-0.391-1.886-1.678 c0-0.414 0.046-0.863 0.184-1.461l5.291-24.837l-6.809 0.923l-4.922 23.051c-0.23 1.104-0.368 2.116-0.368 3 c0 3.9 2.2 5.5 4.9 5.521c1.882 0 4.95-0.587 7.468-4.129c0.466 2.9 2.4 4.1 4.8 4.1 c1.903 0 5.019-0.605 7.553-4.256c0.927 3.1 3.3 4.3 5.7 4.256c3.267 0 5.429-2.116 6.855-4.232 c0.276 2.8 1.9 4.2 4.5 4.232c1.624 0 3.955-0.633 6.107-3.027L68.753 114h6.625l3.128-14.58 c0.69-2.301 1.932-4.139 3.588-4.139c1.104 0 1.7 0.9 1.7 2.393c0 2.944-2.07 8.627-2.07 11.8 c0 2.6 1.4 5.2 5.4 5.21c1.813 0 4.234-0.533 6.417-3.905c0.531 2.7 2.4 3.9 4.8 3.9 c1.881 0 4.95-0.585 7.468-4.128c0.466 2.9 2.4 4.1 4.8 4.13c1.903 0 5.019-0.604 7.553-4.255 c0.928 3.1 3.3 4.3 5.7 4.256c3.267 0 5.429-2.116 6.854-4.232c0.276 2.8 1.9 4.2 4.5 4.2 c1.624 0 3.954-0.633 6.107-3.027L140.742 114h6.625l3.128-14.58c0.69-2.301 1.933-4.139 3.589-4.139 c1.104 0 1.7 0.9 1.7 2.393c0 2.944-2.069 8.627-2.069 11.755c0 2.6 1.4 5.2 5.4 5.21c1.52 0 3.469-0.559 5.346-2.668 L163.972 114h6.625l2.392-11.176c1.288-1.059 2.347-1.609 3.404-1.609c1.196 0 1.7 0.9 1.7 2.3 c0 0.506-0.046 1.127-0.184 1.725l-0.368 1.807c-0.184 0.874-0.276 1.662-0.276 2.398c0 3.4 2 5.2 5.8 5.2 c1.606 0 4.14-0.456 6.414-4.054c0.967 2.9 3.3 4.1 5.6 4.056c3.267 0 5.429-2.115 6.854-4.231 c0.276 2.8 1.9 4.2 4.5 4.232c1.624 0 3.954-0.633 6.107-3.027L211.994 114h6.625l3.128-14.58 c0.69-2.301 1.933-4.139 3.589-4.139c1.104 0 1.7 0.9 1.7 2.393c0 2.944-2.069 8.627-2.069 11.8 c0 2.6 1.1 5.2 4.6 5.21c2.438 0 4.646-1.42 5.061-4.732C234.353 110.1 233.9 110.2 233.1 110.188z M58.636 106.1 c-0.552 2.669-2.484 4.048-3.819 4.048c-0.828 0-2.3-0.045-2.3-3.588c0-4.324 2.53-12.605 6.44-12.605 c1.472 0 1.9 1.2 1.9 1.748L58.636 106.14z M130.625 106.14c-0.553 2.669-2.485 4.048-3.819 4 c-0.828 0-2.3-0.045-2.3-3.588c0-4.324 2.53-12.605 6.44-12.605c1.472 0 1.9 1.2 1.9 1.748L130.625 106.14z M201.876 106.1 c-0.552 2.669-2.484 4.048-3.818 4.048c-0.828 0-2.3-0.045-2.3-3.588c0-4.324 2.53-12.605 6.44-12.605 c1.473 0 1.9 1.2 1.9 1.748L201.876 106.14z"/><path fill="#6E6E6E" d="M22.346 64.927l3.442 8.906l6.848-6.914c1.894 1.7 3.8 3 5.7 3.7 c1.885 0.7 3.8 1.2 5.6 1.509s8.146 0.5 18.9 0.454c4.765 0 9.7-0.04 14.798-0.117l2.58-7.793 c-5.762 0.313-15.647 0.469-29.573 0.469c-6.68 0-11.632-1.68-14.632-5.039V38H23v7h5v14.946L22.346 64.927z"/><path fill="#6E6E6E" d="M38.605 27.72c-2.305-3.359-4.941-6.953-7.91-10.781l-6.27 3.867c2.539 3.6 5 7.5 7.3 11.5 L38.605 27.72z"/><path fill="#6E6E6E" d="M57 64h8v-6h14v-7H65v-6h12v-7H65v-7h-8v7h-7.79c1.738-3 3.32-6 4.746-9H78v-7H57.091 c0.722-2 1.396-3.351 2.021-4.933l-8.496-1.284C49.894 17.9 49.1 20 48.4 22H40v7h5.49C43.83 33 42 36 40 39.087V45h17v6 H39v7h18V64z"/><path fill="#6E6E6E" d="M113.439 21.348c-2.689-3.919-5.765-8.112-9.229-12.578l-7.314 4.512c2.962 4.2 5.8 8.7 8.5 13.5 L113.439 21.348z"/><path fill="#6E6E6E" d="M135 64h9v-8h17v-8h-17v-6h15v-8h-15v-9h-9v9h-9.188c2.028-4 3.874-8 5.538-11H159v-8h-23.994 c0.844-2 1.629-4.072 2.359-5.918l-9.913-1.416c-0.843 2.507-1.721 4.334-2.632 7.334H115v8h6.471 C119.534 27 117 31 115 34.609V42h20v6h-21v8h21V64z"/><path fill="#6E6E6E" d="M94.937 64.756l3.782 10.391l7.873-8.066c2.21 2 4.4 3.5 6.6 4.3 c2.199 0.8 4.4 1.4 6.5 1.761c2.153 0.4 9.5 0.5 22 0.529c5.561 0 11.312-0.046 17.259-0.137l3.006-9.092 c-6.723 0.365-18.458 0.547-34.705 0.547c-7.793 0-13.272-1.959-17.272-5.879V33H95v9h7v16.945L94.937 64.756z"/><path fill="#6E6E6E" d="M175.91 52.875c1.211 2.7 2.1 5.5 3.1 8.487c2.538-1.914 5.008-3.955 7.008-5.986V74h8v-2h26v2h8 V43h-30.791c0.663 0 1.308-1 1.934-2H234v-6h-31.605c0.546-1 1.064-2 1.553-3H230v-5h-23.855c0.37-1 0.722-1.779 1.055-2.775 l23.789-0.699l-1.23-6.165c-14.258 0.82-31.153 1.312-50.684 1.429c0.391 2 0.7 4.1 0.9 6.281l18.662-0.618 C198.42 25.4 198.1 26 197.8 27H181v5h14.627c-0.527 1-1.084 2-1.67 3H176v6h14.119C186.388 45 181.7 49.4 175.9 52.875z M194 49h26v3h-26V49z M194 56h26v3h-26V56z M194 63h26v3h-26V63z"/></svg>